<?xml version="1.0" encoding="UTF-8" ?>
<!DOCTYPE svg PUBLIC "-//W3C//DTD SVG 1.1//EN" "http://www.w3.org/Graphics/SVG/1.1/DTD/svg11.dtd">
<svg width="600pt" height="500pt" viewBox="0 0 600 500" version="1.1" xmlns="http://www.w3.org/2000/svg">
<path fill="#ffffff" d=" M 0.00 0.00 L 600.00 0.00 L 600.00 500.00 L 0.00 500.00 L 0.00 0.00 Z" />
<path fill="#992c2c" d=" M 112.76 250.00 C 175.01 204.90 237.59 160.22 300.00 115.32 C 351.34 152.16 402.63 189.08 453.97 225.93 C 465.03 234.00 476.31 241.77 487.25 250.00 C 424.98 295.08 362.41 339.78 300.00 384.68 C 248.06 347.42 196.17 310.08 144.25 272.79 C 133.79 265.15 123.08 257.83 112.76 250.00 Z" />
<path fill="#ffffff" d=" M 123.97 250.00 C 182.64 207.81 241.34 165.68 300.00 123.49 C 358.65 165.69 417.35 207.81 476.02 249.99 C 417.37 292.20 358.65 334.30 300.00 376.51 C 241.34 334.32 182.64 292.19 123.97 250.00 Z" />
<path fill="#252525" d=" M 239.99 200.19 C 244.40 199.99 250.02 198.78 253.14 202.83 C 255.80 205.97 254.83 210.60 252.27 213.48 C 257.46 215.51 259.51 222.61 255.80 226.90 C 251.92 231.53 245.28 229.85 240.02 229.82 C 239.66 219.96 239.72 210.05 239.99 200.19 Z" />
<path fill="#000000" d=" M 265.53 200.24 C 265.95 200.24 266.79 200.24 267.22 200.24 C 267.31 206.48 267.11 212.71 267.29 218.94 C 267.44 225.08 274.26 229.41 280.01 227.78 C 284.34 226.71 287.77 222.55 287.62 218.02 C 287.71 212.09 287.58 206.15 287.67 200.22 C 288.08 200.23 288.91 200.25 289.32 200.26 C 289.32 206.52 289.48 212.79 289.27 219.05 C 288.73 225.51 282.31 230.85 275.85 229.84 C 270.18 229.05 265.45 223.83 265.52 218.06 C 265.47 212.12 265.52 206.18 265.53 200.24 Z" />
<path fill="#252525" d=" M 301.43 199.47 C 302.64 200.27 303.49 201.37 303.18 202.91 C 303.18 210.95 303.19 218.99 303.18 227.03 C 303.44 228.56 302.80 229.79 301.38 230.40 C 301.04 220.11 300.95 209.76 301.43 199.47 Z" />
<path fill="#000000" d=" M 314.51 199.31 C 315.34 200.35 315.75 201.58 315.61 202.92 C 315.60 211.27 315.60 219.62 315.59 227.98 C 320.11 228.06 324.63 227.91 329.15 228.03 C 330.09 228.05 331.79 228.12 331.48 229.51 C 325.84 230.58 319.98 229.79 314.25 229.93 C 314.30 219.73 313.82 209.49 314.51 199.31 Z" />
<path fill="#191919" d=" M 338.56 200.02 C 342.67 200.02 347.01 199.49 350.85 201.35 C 356.18 203.59 359.82 209.27 359.69 215.04 C 359.82 221.09 355.79 226.99 350.06 228.99 C 346.41 230.50 342.40 229.94 338.56 229.98 C 338.39 220.00 338.39 210.00 338.56 200.02 Z" />
<path fill="#ffffff" d=" M 241.69 202.02 C 244.29 202.10 246.94 201.74 249.50 202.30 C 253.79 203.82 254.02 210.65 249.90 212.51 C 247.29 213.43 244.41 212.82 241.69 212.98 C 241.70 209.33 241.70 205.67 241.69 202.02 Z" />
<path fill="#ffffff" d=" M 340.25 202.00 C 344.66 201.89 349.56 201.65 353.08 204.83 C 359.49 209.58 359.49 220.32 353.14 225.13 C 349.64 228.37 344.68 228.10 340.25 228.00 C 340.26 219.33 340.26 210.67 340.25 202.00 Z" />
<path fill="#ffffff" d=" M 241.69 215.03 C 245.11 215.19 248.65 214.55 251.98 215.46 C 256.81 217.41 257.12 224.94 252.47 227.29 C 249.09 228.66 245.26 227.72 241.69 227.97 C 241.70 223.66 241.70 219.34 241.69 215.03 Z" />
<path fill="#e17616" d=" M 221.44 247.41 C 223.12 245.40 225.80 246.64 227.53 247.86 C 231.69 247.99 235.85 248.27 240.01 248.31 C 280.33 248.32 320.65 248.31 360.97 248.32 C 365.57 248.28 370.41 248.85 374.70 246.78 C 376.89 245.37 379.84 247.61 379.63 250.04 C 379.79 252.44 376.84 254.62 374.67 253.21 C 370.38 251.14 365.54 251.73 360.95 251.68 C 320.28 251.71 279.61 251.66 238.95 251.70 C 234.19 252.02 229.17 251.32 224.73 253.42 C 221.44 254.76 218.71 249.59 221.44 247.41 Z" />
<path fill="#000000" d=" M 266.39 277.25 C 268.20 273.00 269.09 268.27 271.87 264.49 C 274.74 271.57 277.25 278.79 279.99 285.93 C 281.13 289.08 282.67 292.16 282.91 295.56 C 280.20 293.60 279.93 289.98 278.75 287.11 C 274.16 287.00 269.55 286.83 264.97 287.12 C 262.50 289.10 263.59 294.05 260.12 295.41 C 261.38 289.11 264.37 283.32 266.39 277.25 Z" />
<path fill="#ffffff" d=" M 265.28 284.97 C 267.47 279.58 269.25 274.03 271.68 268.73 C 273.86 274.09 275.80 279.55 277.85 284.96 C 273.66 285.02 269.47 285.01 265.28 284.97 Z" />
<path fill="#000000" d=" M 289.91 273.32 C 291.27 274.49 291.41 276.22 291.59 277.87 C 293.23 276.45 294.92 274.91 297.09 274.38 C 301.93 272.87 307.30 276.32 308.79 280.98 C 311.02 286.66 307.13 293.78 301.06 294.78 C 297.31 295.76 293.97 293.27 291.36 290.91 C 291.29 294.93 291.52 298.95 291.25 302.97 C 290.91 303.36 290.22 304.15 289.87 304.54 C 289.52 294.15 289.44 283.71 289.91 273.32 Z" />
<path fill="#000000" d=" M 318.29 274.17 C 318.65 274.18 319.36 274.20 319.72 274.21 C 319.72 275.15 319.72 277.01 319.72 277.95 C 322.93 274.98 327.77 272.60 331.99 275.01 C 337.96 277.49 339.54 285.86 335.83 290.85 C 334.07 293.39 331.02 294.75 328.01 295.03 C 324.75 294.99 322.10 292.91 319.72 290.92 C 319.72 295.21 319.73 299.51 319.71 303.81 C 319.36 303.81 318.64 303.81 318.29 303.81 C 318.28 293.93 318.27 284.05 318.29 274.17 Z" />
<path fill="#ffffff" d=" M 297.22 276.19 C 302.61 274.48 308.48 279.38 307.67 284.98 C 307.93 291.06 300.26 295.35 295.25 291.83 C 289.22 288.37 290.38 277.97 297.22 276.19 Z" />
<path fill="#ffffff" d=" M 324.50 276.67 C 330.05 273.77 337.02 279.00 336.31 285.05 C 336.22 291.15 328.43 295.54 323.45 291.60 C 318.12 288.12 318.73 279.38 324.50 276.67 Z" />
</svg>
